HIERARCHY
ROOT Hips
{
	OFFSET 0.00000 0.00000 0.00000
	CHANNELS 6 Xposition Yposition Zposition Zrotation Yrotation Xrotation 
	JOINT LHipJoint
	{
		OFFSET 0 0 0
		CHANNELS 3 Zrotation Yrotation Xrotation
		JOINT LeftUpLeg
		{
			OFFSET 1.80322 -1.53100 0.99595
			CHANNELS 3 Zrotation Yrotation Xrotation
			JOINT LeftLeg
			{
				OFFSET 2.25177 -6.18669 0.00000
				CHANNELS 3 Zrotation Yrotation Xrotation
				JOINT LeftFoot
				{
					OFFSET 2.26601 -6.22582 0.00000
					CHANNELS 3 Zrotation Yrotation Xrotation
					JOINT LeftToeBase
					{
						OFFSET 0.23701 -0.65119 2.15848
						CHANNELS 3 Zrotation Yrotation Xrotation
						End Site
						{
							OFFSET 0.00000 -0.00000 1.12949
						}
					}
				}
			}
		}
	}
	JOINT RHipJoint
	{
		OFFSET 0 0 0
		CHANNELS 3 Zrotation Yrotation Xrotation
		JOINT RightUpLeg
		{
			OFFSET -1.93977 -1.53100 0.99595
			CHANNELS 3 Zrotation Yrotation Xrotation
			JOINT RightLeg
			{
				OFFSET -2.28036 -6.26523 0.00000
				CHANNELS 3 Zrotation Yrotation Xrotation
				JOINT RightFoot
				{
					OFFSET -2.25490 -6.19528 0.00000
					CHANNELS 3 Zrotation Yrotation Xrotation
					JOINT RightToeBase
					{
						OFFSET -0.28375 -0.77960 2.23137
						CHANNELS 3 Zrotation Yrotation Xrotation
						End Site
						{
							OFFSET -0.00000 -0.00000 1.17899
						}
					}
				}
			}
		}
	}
	JOINT LowerBack
	{
		OFFSET 0 0 0
		CHANNELS 3 Zrotation Yrotation Xrotation
		JOINT Spine
		{
			OFFSET -0.00088 2.12090 -0.02806
			CHANNELS 3 Zrotation Yrotation Xrotation
			JOINT Spine1
			{
				OFFSET -0.00286 2.09666 0.12974
				CHANNELS 3 Zrotation Yrotation Xrotation
				JOINT Neck
				{
					OFFSET 0 0 0
					CHANNELS 3 Zrotation Yrotation Xrotation
					JOINT Neck1
					{
						OFFSET 0.07328 1.83526 0.07290
						CHANNELS 3 Zrotation Yrotation Xrotation
						JOINT Head
						{
							OFFSET -0.06683 1.74974 -0.49542
							CHANNELS 3 Zrotation Yrotation Xrotation
							End Site
							{
								OFFSET -0.03398 1.85163 -0.17573
							}
						}
					}
				}
				JOINT LeftShoulder
				{
					OFFSET 0 0 0
					CHANNELS 3 Zrotation Yrotation Xrotation
					JOINT LeftArm
					{
						OFFSET 3.02113 1.18018 0.40602
						CHANNELS 3 Zrotation Yrotation Xrotation
						JOINT LeftForeArm
						{
							OFFSET 4.58538 -0.00000 -0.00000
							CHANNELS 3 Zrotation Yrotation Xrotation
							JOINT LeftHand
							{
								OFFSET 2.68935 -0.00000 -0.00000
								CHANNELS 3 Zrotation Yrotation Xrotation
								JOINT LeftFingerBase
								{
									OFFSET 0 0 0
									CHANNELS 3 Zrotation Yrotation Xrotation
									JOINT LeftHandIndex1
									{
										OFFSET 0.58506 -0.00000 -0.00000
										CHANNELS 3 Zrotation Yrotation Xrotation
										End Site
										{
											OFFSET 0.47169 -0.00000 -0.00000
										}
									}
								}
								JOINT LThumb
								{
									OFFSET 0 0 0
									CHANNELS 3 Zrotation Yrotation Xrotation
									End Site
									{
										OFFSET 0.47889 -0.00000 0.47889
									}
								}
							}
						}
					}
				}
				JOINT RightShoulder
				{
					OFFSET 0 0 0
					CHANNELS 3 Zrotation Yrotation Xrotation
					JOINT RightArm
					{
						OFFSET -2.95074 1.18843 0.31430
						CHANNELS 3 Zrotation Yrotation Xrotation
						JOINT RightForeArm
						{
							OFFSET -4.47450 -0.00000 -0.00000
							CHANNELS 3 Zrotation Yrotation Xrotation
							JOINT RightHand
							{
								OFFSET -2.93896 -0.00000 -0.00000
								CHANNELS 3 Zrotation Yrotation Xrotation
								JOINT RightFingerBase
								{
									OFFSET 0 0 0
									CHANNELS 3 Zrotation Yrotation Xrotation
									JOINT RightHandIndex1
									{
										OFFSET -0.40509 -0.00000 -0.00000
										CHANNELS 3 Zrotation Yrotation Xrotation
										End Site
										{
											OFFSET -0.32660 -0.00000 -0.00000
										}
									}
								}
								JOINT RThumb
								{
									OFFSET 0 0 0
									CHANNELS 3 Zrotation Yrotation Xrotation
									End Site
									{
										OFFSET -0.33158 -0.00000 0.33158
									}
								}
							}
						}
					}
				}
			}
		}
	}
}
MOTION
Frames: 7
Frame Time: .0083333
0.2436 15.3955 6.8250 1.9668 -3.5792 19.2140 0.0000 0.0000 0.0000 -20.2874 -18.9999 -30.8491 4.8180 13.1759 40.0304 1.1432 7.1068 -23.9352 0.0174 -0.8516 -2.3407 0.0000 0.0000 0.0000 16.2696 15.2451 -35.0910 -5.8563 -14.2876 44.4023 -1.7446 -2.4955 -25.9566 -0.0058 -0.4906 1.3479 -0.8865 -0.8737 -1.6827 -0.4709 -1.2760 -10.2270 0.0830 -0.5872 -9.8574 9.7692 3.6774 -8.9892 -3.6488 4.4713 41.4159 -2.6746 2.8921 16.8959 0.0000 0.0000 0.0000 40.7509 -35.2197 -41.7782 31.8555 -42.4317 -12.6432 -0.0000 -0.0000 7.3719 34.7590 14.2943 9.7226 -7.1250 0.0000 -0.0000 6.9933 47.0882 0.3621 0.0000 0.0000 0.0000 -46.1923 41.5609 -54.9367 -25.3005 36.5095 -8.4680 0.0000 0.0000 18.6942 -37.1705 -3.1571 2.3912 7.1250 -0.0000 -0.0000 -8.6505 -33.8440 -2.3900
0.2393 15.4251 6.8536 1.9540 -3.5611 19.0351 0.0000 0.0000 0.0000 -20.3806 -18.8640 -30.1907 4.6798 13.0139 39.4204 1.1151 7.0890 -23.6928 0.0162 -0.8216 -2.2581 0.0000 0.0000 0.0000 16.4202 15.1318 -34.3512 -5.6780 -14.1089 43.6754 -1.7181 -2.5782 -25.8038 -0.0062 -0.5094 1.3997 -0.8843 -0.8617 -1.9427 -0.4579 -1.2561 -10.3254 0.0907 -0.5774 -9.8139 9.7582 3.6379 -8.8330 -3.6268 4.4247 41.4556 -2.6728 2.8775 16.8725 0.0000 0.0000 0.0000 40.8353 -34.8845 -42.0306 31.2786 -41.9644 -12.2557 -0.0000 -0.0000 7.4676 34.6394 14.4013 9.7498 -7.1250 0.0000 -0.0000 6.8745 47.1950 0.3741 0.0000 0.0000 0.0000 -46.4621 41.3547 -55.6349 -24.7597 35.9573 -8.1484 0.0000 0.0000 19.0145 -36.9342 -3.2251 2.4217 7.1250 -0.0000 -0.0000 -8.4629 -33.9201 -2.3215
0.2351 15.4526 6.8821 1.9407 -3.5416 18.8583 0.0000 0.0000 0.0000 -20.4690 -18.7387 -29.5496 4.5512 12.8599 38.8462 1.0891 7.0777 -23.4700 0.0154 -0.8023 -2.2051 0.0000 0.0000 0.0000 16.5646 15.0278 -33.6293 -5.5111 -13.9372 42.9866 -1.6953 -2.6587 -25.6749 -0.0067 -0.5281 1.4512 -0.8783 -0.8473 -2.1987 -0.4479 -1.2332 -10.4273 0.0930 -0.5664 -9.7772 9.7488 3.5974 -8.6782 -3.6051 4.3762 41.4901 -2.6715 2.8622 16.8465 0.0000 0.0000 0.0000 40.9015 -34.5314 -42.2529 30.7147 -41.4982 -11.8804 -0.0000 -0.0000 7.5224 34.5064 14.5165 9.7769 -7.1250 0.0000 -0.0000 6.7417 47.3090 0.3858 0.0000 0.0000 0.0000 -46.6910 41.1369 -56.3191 -24.2395 35.4165 -7.8449 0.0000 0.0000 19.3240 -36.7058 -3.2908 2.4506 7.1250 -0.0000 -0.0000 -8.2813 -33.9933 -2.2559
0.2308 15.4776 6.9104 1.9307 -3.5175 18.6897 0.0000 0.0000 0.0000 -20.5551 -18.6231 -28.9350 4.4315 12.7135 38.3052 1.0647 7.0745 -23.2634 0.0154 -0.8007 -2.2006 0.0000 0.0000 0.0000 16.6971 14.9371 -32.9342 -5.3561 -13.7739 42.3392 -1.6763 -2.7371 -25.5730 -0.0072 -0.5496 1.5103 -0.8712 -0.8348 -2.4582 -0.4402 -1.2131 -10.5363 0.0925 -0.5571 -9.7466 9.7380 3.5591 -8.5043 -3.5787 4.3315 41.5072 -2.6670 2.8486 16.8062 -0.0000 -0.0000 0.0000 40.9430 -34.1640 -42.4451 30.1653 -41.0346 -11.5180 -0.0000 -0.0000 7.5297 34.3982 14.6361 9.8151 -7.1250 0.0000 -0.0000 6.6329 47.4318 0.3997 -0.0000 -0.0000 0.0000 -46.8778 40.9107 -56.9577 -23.7436 34.8920 -7.5594 0.0000 0.0000 19.5832 -36.5242 -3.3646 2.4889 7.1250 -0.0000 -0.0000 -8.1384 -34.0778 -2.1995
0.2265 15.5000 6.9385 1.9216 -3.4928 18.5209 0.0000 0.0000 0.0000 -20.6411 -18.5129 -28.3360 4.3203 12.5748 37.7971 1.0424 7.0835 -23.0816 0.0158 -0.8124 -2.2327 0.0000 0.0000 0.0000 16.8217 14.8615 -32.2562 -5.2130 -13.6197 41.7349 -1.6612 -2.8141 -25.4979 -0.0078 -0.5700 1.5664 -0.8619 -0.8210 -2.7141 -0.4371 -1.1916 -10.6426 0.0861 -0.5474 -9.7156 9.7323 3.5233 -8.3406 -3.5513 4.2878 41.5133 -2.6623 2.8360 16.7626 0.0000 0.0000 0.0000 40.9760 -33.7777 -42.6272 29.6278 -40.5722 -11.1668 -0.0000 -0.0000 7.4868 34.2651 14.7583 9.8454 -7.1250 0.0000 -0.0000 6.4988 47.5535 0.4111 0.0000 0.0000 0.0000 -47.0225 40.6640 -57.5610 -23.2698 34.3825 -7.2901 0.0000 0.0000 19.7949 -36.3983 -3.4539 2.5430 7.1250 -0.0000 -0.0000 -8.0422 -34.1829 -2.1523
0.2222 15.5200 6.9666 1.9129 -3.4646 18.3524 0.0000 0.0000 0.0000 -20.7270 -18.4058 -27.7541 4.2173 12.4440 37.3215 1.0229 7.0984 -22.9261 0.0166 -0.8317 -2.2857 0.0000 0.0000 0.0000 16.9392 14.8003 -31.5962 -5.0816 -13.4751 41.1742 -1.6500 -2.8893 -25.4501 -0.0084 -0.5929 1.6293 -0.8487 -0.8075 -2.9682 -0.4371 -1.1708 -10.7479 0.0744 -0.5386 -9.6849 9.7316 3.4903 -8.1745 -3.5252 4.2478 41.5044 -2.6581 2.8252 16.7110 0.0000 0.0000 0.0000 40.9937 -33.3749 -42.7975 29.1035 -40.1124 -10.8273 -0.0000 -0.0000 7.3981 34.1565 14.8821 9.8849 -7.1250 0.0000 -0.0000 6.3882 47.6807 0.4242 0.0000 0.0000 0.0000 -47.1241 40.3883 -58.0889 -22.8220 33.8936 -7.0388 0.0000 0.0000 19.9334 -36.3081 -3.5570 2.6102 7.1250 -0.0000 -0.0000 -7.9762 -34.3062 -2.1103
0.2181 15.5374 6.9943 1.9055 -3.4371 18.1889 0.0000 0.0000 0.0000 -20.8125 -18.3094 -27.1948 4.1225 12.3217 36.8796 1.0060 7.1258 -22.8002 0.0174 -0.8522 -2.3423 0.0000 0.0000 0.0000 17.0463 14.7572 -30.9626 -4.9617 -13.3406 40.6571 -1.6416 -2.9665 -25.4238 -0.0090 -0.6113 1.6798 -0.8328 -0.7927 -3.2220 -0.4410 -1.1484 -10.8527 0.0570 -0.5294 -9.6540 9.7395 3.4581 -8.0076 -3.5033 4.2086 41.4769 -2.6567 2.8151 16.6494 -0.0000 -0.0000 0.0000 41.0040 -32.9613 -42.9814 28.5867 -39.6508 -10.4960 -0.0000 -0.0000 7.2859 34.0499 15.0003 9.9211 -7.1250 0.0000 -0.0000 6.2793 47.8014 0.4356 -0.0000 -0.0000 0.0000 -47.1973 40.0971 -58.6055 -22.3862 33.4107 -6.7973 0.0000 0.0000 20.0595 -36.2199 -3.6321 2.6566 7.1250 -0.0000 -0.0000 -7.9095 -34.3949 -2.0752
